%TF.GenerationSoftware,KiCad,Pcbnew,9.0.2*%
%TF.CreationDate,2025-07-08T16:24:30+01:00*%
%TF.ProjectId,FastStepper,46617374-5374-4657-9070-65722e6b6963,rev?*%
%TF.SameCoordinates,PX71f712cPY8e18f40*%
%TF.FileFunction,AssemblyDrawing,Top*%
%FSLAX46Y46*%
G04 Gerber Fmt 4.6, Leading zero omitted, Abs format (unit mm)*
G04 Created by KiCad (PCBNEW 9.0.2) date 2025-07-08 16:24:30*
%MOMM*%
%LPD*%
G01*
G04 APERTURE LIST*
%ADD10C,0.150000*%
%ADD11C,0.100000*%
%ADD12C,0.040000*%
%ADD13C,0.060000*%
%ADD14C,0.127000*%
%ADD15C,0.200000*%
%ADD16C,0.120000*%
%ADD17C,0.203200*%
%TA.AperFunction,Profile*%
%ADD18C,0.152400*%
%TD*%
%TA.AperFunction,Profile*%
%ADD19C,0.150000*%
%TD*%
G04 APERTURE END LIST*
D10*
X54188485Y32366667D02*
X54902770Y32366667D01*
X54902770Y32366667D02*
X55045627Y32319048D01*
X55045627Y32319048D02*
X55140866Y32223810D01*
X55140866Y32223810D02*
X55188485Y32080953D01*
X55188485Y32080953D02*
X55188485Y31985715D01*
X54283723Y32795239D02*
X54236104Y32842858D01*
X54236104Y32842858D02*
X54188485Y32938096D01*
X54188485Y32938096D02*
X54188485Y33176191D01*
X54188485Y33176191D02*
X54236104Y33271429D01*
X54236104Y33271429D02*
X54283723Y33319048D01*
X54283723Y33319048D02*
X54378961Y33366667D01*
X54378961Y33366667D02*
X54474199Y33366667D01*
X54474199Y33366667D02*
X54617056Y33319048D01*
X54617056Y33319048D02*
X55188485Y32747620D01*
X55188485Y32747620D02*
X55188485Y33366667D01*
D11*
X56651319Y72454167D02*
X57365604Y72454167D01*
X57365604Y72454167D02*
X57508461Y72406548D01*
X57508461Y72406548D02*
X57603700Y72311310D01*
X57603700Y72311310D02*
X57651319Y72168453D01*
X57651319Y72168453D02*
X57651319Y72073215D01*
X57651319Y73454167D02*
X57651319Y72882739D01*
X57651319Y73168453D02*
X56651319Y73168453D01*
X56651319Y73168453D02*
X56794176Y73073215D01*
X56794176Y73073215D02*
X56889414Y72977977D01*
X56889414Y72977977D02*
X56937033Y72882739D01*
D12*
X10960565Y36039286D02*
X10972470Y36027382D01*
X10972470Y36027382D02*
X10984374Y35991667D01*
X10984374Y35991667D02*
X10984374Y35967858D01*
X10984374Y35967858D02*
X10972470Y35932144D01*
X10972470Y35932144D02*
X10948660Y35908334D01*
X10948660Y35908334D02*
X10924850Y35896429D01*
X10924850Y35896429D02*
X10877231Y35884525D01*
X10877231Y35884525D02*
X10841517Y35884525D01*
X10841517Y35884525D02*
X10793898Y35896429D01*
X10793898Y35896429D02*
X10770089Y35908334D01*
X10770089Y35908334D02*
X10746279Y35932144D01*
X10746279Y35932144D02*
X10734374Y35967858D01*
X10734374Y35967858D02*
X10734374Y35991667D01*
X10734374Y35991667D02*
X10746279Y36027382D01*
X10746279Y36027382D02*
X10758184Y36039286D01*
X10734374Y36122620D02*
X10734374Y36277382D01*
X10734374Y36277382D02*
X10829612Y36194048D01*
X10829612Y36194048D02*
X10829612Y36229763D01*
X10829612Y36229763D02*
X10841517Y36253572D01*
X10841517Y36253572D02*
X10853422Y36265477D01*
X10853422Y36265477D02*
X10877231Y36277382D01*
X10877231Y36277382D02*
X10936755Y36277382D01*
X10936755Y36277382D02*
X10960565Y36265477D01*
X10960565Y36265477D02*
X10972470Y36253572D01*
X10972470Y36253572D02*
X10984374Y36229763D01*
X10984374Y36229763D02*
X10984374Y36158334D01*
X10984374Y36158334D02*
X10972470Y36134525D01*
X10972470Y36134525D02*
X10960565Y36122620D01*
X10841517Y36420239D02*
X10829612Y36396429D01*
X10829612Y36396429D02*
X10817708Y36384524D01*
X10817708Y36384524D02*
X10793898Y36372620D01*
X10793898Y36372620D02*
X10781993Y36372620D01*
X10781993Y36372620D02*
X10758184Y36384524D01*
X10758184Y36384524D02*
X10746279Y36396429D01*
X10746279Y36396429D02*
X10734374Y36420239D01*
X10734374Y36420239D02*
X10734374Y36467858D01*
X10734374Y36467858D02*
X10746279Y36491667D01*
X10746279Y36491667D02*
X10758184Y36503572D01*
X10758184Y36503572D02*
X10781993Y36515477D01*
X10781993Y36515477D02*
X10793898Y36515477D01*
X10793898Y36515477D02*
X10817708Y36503572D01*
X10817708Y36503572D02*
X10829612Y36491667D01*
X10829612Y36491667D02*
X10841517Y36467858D01*
X10841517Y36467858D02*
X10841517Y36420239D01*
X10841517Y36420239D02*
X10853422Y36396429D01*
X10853422Y36396429D02*
X10865327Y36384524D01*
X10865327Y36384524D02*
X10889136Y36372620D01*
X10889136Y36372620D02*
X10936755Y36372620D01*
X10936755Y36372620D02*
X10960565Y36384524D01*
X10960565Y36384524D02*
X10972470Y36396429D01*
X10972470Y36396429D02*
X10984374Y36420239D01*
X10984374Y36420239D02*
X10984374Y36467858D01*
X10984374Y36467858D02*
X10972470Y36491667D01*
X10972470Y36491667D02*
X10960565Y36503572D01*
X10960565Y36503572D02*
X10936755Y36515477D01*
X10936755Y36515477D02*
X10889136Y36515477D01*
X10889136Y36515477D02*
X10865327Y36503572D01*
X10865327Y36503572D02*
X10853422Y36491667D01*
X10853422Y36491667D02*
X10841517Y36467858D01*
D10*
X54168719Y52166667D02*
X54883004Y52166667D01*
X54883004Y52166667D02*
X55025861Y52119048D01*
X55025861Y52119048D02*
X55121100Y52023810D01*
X55121100Y52023810D02*
X55168719Y51880953D01*
X55168719Y51880953D02*
X55168719Y51785715D01*
X54168719Y52547620D02*
X54168719Y53166667D01*
X54168719Y53166667D02*
X54549671Y52833334D01*
X54549671Y52833334D02*
X54549671Y52976191D01*
X54549671Y52976191D02*
X54597290Y53071429D01*
X54597290Y53071429D02*
X54644909Y53119048D01*
X54644909Y53119048D02*
X54740147Y53166667D01*
X54740147Y53166667D02*
X54978242Y53166667D01*
X54978242Y53166667D02*
X55073480Y53119048D01*
X55073480Y53119048D02*
X55121100Y53071429D01*
X55121100Y53071429D02*
X55168719Y52976191D01*
X55168719Y52976191D02*
X55168719Y52690477D01*
X55168719Y52690477D02*
X55121100Y52595239D01*
X55121100Y52595239D02*
X55073480Y52547620D01*
D13*
X8842732Y32842858D02*
X8861780Y32823810D01*
X8861780Y32823810D02*
X8880827Y32766668D01*
X8880827Y32766668D02*
X8880827Y32728572D01*
X8880827Y32728572D02*
X8861780Y32671429D01*
X8861780Y32671429D02*
X8823684Y32633334D01*
X8823684Y32633334D02*
X8785589Y32614287D01*
X8785589Y32614287D02*
X8709399Y32595239D01*
X8709399Y32595239D02*
X8652256Y32595239D01*
X8652256Y32595239D02*
X8576065Y32614287D01*
X8576065Y32614287D02*
X8537970Y32633334D01*
X8537970Y32633334D02*
X8499875Y32671429D01*
X8499875Y32671429D02*
X8480827Y32728572D01*
X8480827Y32728572D02*
X8480827Y32766668D01*
X8480827Y32766668D02*
X8499875Y32823810D01*
X8499875Y32823810D02*
X8518922Y32842858D01*
X8480827Y32976191D02*
X8480827Y33223810D01*
X8480827Y33223810D02*
X8633208Y33090477D01*
X8633208Y33090477D02*
X8633208Y33147620D01*
X8633208Y33147620D02*
X8652256Y33185715D01*
X8652256Y33185715D02*
X8671303Y33204763D01*
X8671303Y33204763D02*
X8709399Y33223810D01*
X8709399Y33223810D02*
X8804637Y33223810D01*
X8804637Y33223810D02*
X8842732Y33204763D01*
X8842732Y33204763D02*
X8861780Y33185715D01*
X8861780Y33185715D02*
X8880827Y33147620D01*
X8880827Y33147620D02*
X8880827Y33033334D01*
X8880827Y33033334D02*
X8861780Y32995239D01*
X8861780Y32995239D02*
X8842732Y32976191D01*
X8880827Y33414286D02*
X8880827Y33490477D01*
X8880827Y33490477D02*
X8861780Y33528572D01*
X8861780Y33528572D02*
X8842732Y33547620D01*
X8842732Y33547620D02*
X8785589Y33585715D01*
X8785589Y33585715D02*
X8709399Y33604762D01*
X8709399Y33604762D02*
X8557018Y33604762D01*
X8557018Y33604762D02*
X8518922Y33585715D01*
X8518922Y33585715D02*
X8499875Y33566667D01*
X8499875Y33566667D02*
X8480827Y33528572D01*
X8480827Y33528572D02*
X8480827Y33452381D01*
X8480827Y33452381D02*
X8499875Y33414286D01*
X8499875Y33414286D02*
X8518922Y33395239D01*
X8518922Y33395239D02*
X8557018Y33376191D01*
X8557018Y33376191D02*
X8652256Y33376191D01*
X8652256Y33376191D02*
X8690351Y33395239D01*
X8690351Y33395239D02*
X8709399Y33414286D01*
X8709399Y33414286D02*
X8728446Y33452381D01*
X8728446Y33452381D02*
X8728446Y33528572D01*
X8728446Y33528572D02*
X8709399Y33566667D01*
X8709399Y33566667D02*
X8690351Y33585715D01*
X8690351Y33585715D02*
X8652256Y33604762D01*
D12*
X27772857Y29566200D02*
X27686190Y29690009D01*
X27624285Y29566200D02*
X27624285Y29826200D01*
X27624285Y29826200D02*
X27723333Y29826200D01*
X27723333Y29826200D02*
X27748095Y29813819D01*
X27748095Y29813819D02*
X27760476Y29801438D01*
X27760476Y29801438D02*
X27772857Y29776676D01*
X27772857Y29776676D02*
X27772857Y29739533D01*
X27772857Y29739533D02*
X27760476Y29714771D01*
X27760476Y29714771D02*
X27748095Y29702390D01*
X27748095Y29702390D02*
X27723333Y29690009D01*
X27723333Y29690009D02*
X27624285Y29690009D01*
X28020476Y29566200D02*
X27871904Y29566200D01*
X27946190Y29566200D02*
X27946190Y29826200D01*
X27946190Y29826200D02*
X27921428Y29789057D01*
X27921428Y29789057D02*
X27896666Y29764295D01*
X27896666Y29764295D02*
X27871904Y29751914D01*
X28181428Y29826200D02*
X28206190Y29826200D01*
X28206190Y29826200D02*
X28230952Y29813819D01*
X28230952Y29813819D02*
X28243333Y29801438D01*
X28243333Y29801438D02*
X28255714Y29776676D01*
X28255714Y29776676D02*
X28268095Y29727152D01*
X28268095Y29727152D02*
X28268095Y29665247D01*
X28268095Y29665247D02*
X28255714Y29615723D01*
X28255714Y29615723D02*
X28243333Y29590961D01*
X28243333Y29590961D02*
X28230952Y29578580D01*
X28230952Y29578580D02*
X28206190Y29566200D01*
X28206190Y29566200D02*
X28181428Y29566200D01*
X28181428Y29566200D02*
X28156666Y29578580D01*
X28156666Y29578580D02*
X28144285Y29590961D01*
X28144285Y29590961D02*
X28131904Y29615723D01*
X28131904Y29615723D02*
X28119523Y29665247D01*
X28119523Y29665247D02*
X28119523Y29727152D01*
X28119523Y29727152D02*
X28131904Y29776676D01*
X28131904Y29776676D02*
X28144285Y29801438D01*
X28144285Y29801438D02*
X28156666Y29813819D01*
X28156666Y29813819D02*
X28181428Y29826200D01*
D11*
%TO.C,C17*%
X16236000Y52106600D02*
X16736000Y52106600D01*
X16236000Y51106600D02*
X16236000Y52106600D01*
X16736000Y52106600D02*
X16736000Y51106600D01*
X16736000Y51106600D02*
X16236000Y51106600D01*
%TO.C,C14*%
X16363000Y57250000D02*
X16863000Y57250000D01*
X16363000Y56250000D02*
X16363000Y57250000D01*
X16863000Y57250000D02*
X16863000Y56250000D01*
X16863000Y56250000D02*
X16363000Y56250000D01*
%TO.C,C30*%
X24769000Y28025400D02*
X25269000Y28025400D01*
X24769000Y27025400D02*
X24769000Y28025400D01*
X25269000Y28025400D02*
X25269000Y27025400D01*
X25269000Y27025400D02*
X24769000Y27025400D01*
%TO.C,R14*%
X21446000Y30208400D02*
X22496000Y30208400D01*
X21446000Y29668400D02*
X21446000Y30208400D01*
X22496000Y30208400D02*
X22496000Y29668400D01*
X22496000Y29668400D02*
X21446000Y29668400D01*
%TO.C,C29*%
X19238200Y41939000D02*
X19738200Y41939000D01*
X19238200Y40939000D02*
X19238200Y41939000D01*
X19738200Y41939000D02*
X19738200Y40939000D01*
X19738200Y40939000D02*
X19238200Y40939000D01*
%TO.C,R22*%
X12423900Y14770000D02*
X13473900Y14770000D01*
X12423900Y14230000D02*
X12423900Y14770000D01*
X13473900Y14770000D02*
X13473900Y14230000D01*
X13473900Y14230000D02*
X12423900Y14230000D01*
%TO.C,X6*%
X32648900Y56800000D02*
X32648900Y54925000D01*
X29448900Y54925000D01*
X29448900Y57425000D01*
X32023900Y57425000D01*
X32648900Y56800000D01*
%TO.C,IC6*%
X12002000Y46449400D02*
X13652000Y46449400D01*
X12002000Y43399400D02*
X12002000Y46449400D01*
X12002000Y43399400D02*
X13252000Y43399400D01*
X13652000Y43824400D02*
X13252000Y43399400D01*
X13652000Y43824400D02*
X13652000Y46449400D01*
%TO.C,C31*%
X30853971Y27753623D02*
X31353971Y27753623D01*
X30853971Y26753623D02*
X30853971Y27753623D01*
X31353971Y27753623D02*
X31353971Y26753623D01*
X31353971Y26753623D02*
X30853971Y26753623D01*
%TO.C,C18*%
X55748900Y63250000D02*
X56748900Y63250000D01*
X55748900Y62750000D02*
X55748900Y63250000D01*
X56748900Y63250000D02*
X56748900Y62750000D01*
X56748900Y62750000D02*
X55748900Y62750000D01*
D14*
%TO.C,FL1*%
X46161400Y72100000D02*
X48161400Y72100000D01*
X46161400Y70900000D02*
X46161400Y72100000D01*
X48161400Y72100000D02*
X48161400Y70900000D01*
X48161400Y70900000D02*
X46161400Y70900000D01*
D15*
X49111400Y71920000D02*
G75*
G02*
X48911400Y71920000I-100000J0D01*
G01*
X48911400Y71920000D02*
G75*
G02*
X49111400Y71920000I100000J0D01*
G01*
D11*
%TO.C,R27*%
X34728900Y76825000D02*
X35268900Y76825000D01*
X34728900Y75775000D02*
X34728900Y76825000D01*
X35268900Y76825000D02*
X35268900Y75775000D01*
X35268900Y75775000D02*
X34728900Y75775000D01*
%TO.C,IC13*%
X16423900Y19100000D02*
X16423900Y16475000D01*
X16423900Y19100000D02*
X16823900Y19525000D01*
X18073900Y19525000D02*
X16823900Y19525000D01*
X18073900Y19525000D02*
X18073900Y16475000D01*
X18073900Y16475000D02*
X16423900Y16475000D01*
%TO.C,U2*%
X38048900Y76525000D02*
X39023900Y77500000D01*
X38048900Y72600000D02*
X38048900Y76525000D01*
X39023900Y77500000D02*
X41948900Y77500000D01*
X41948900Y77500000D02*
X41948900Y72600000D01*
X41948900Y72600000D02*
X38048900Y72600000D01*
%TO.C,U3*%
X45723900Y29255000D02*
X41823900Y29255000D01*
X45723900Y34155000D02*
X45723900Y29255000D01*
X42798900Y34155000D02*
X45723900Y34155000D01*
X41823900Y29255000D02*
X41823900Y33180000D01*
X41823900Y33180000D02*
X42798900Y34155000D01*
%TO.C,IC2*%
X12002000Y56311400D02*
X12002000Y53686400D01*
X12002000Y56311400D02*
X12402000Y56736400D01*
X13652000Y56736400D02*
X12402000Y56736400D01*
X13652000Y56736400D02*
X13652000Y53686400D01*
X13652000Y53686400D02*
X12002000Y53686400D01*
%TO.C,IC5*%
X12002000Y42131400D02*
X13652000Y42131400D01*
X12002000Y39081400D02*
X12002000Y42131400D01*
X12002000Y39081400D02*
X13252000Y39081400D01*
X13652000Y39506400D02*
X13252000Y39081400D01*
X13652000Y39506400D02*
X13652000Y42131400D01*
%TO.C,IC15*%
X33654000Y25811400D02*
X33654000Y27461400D01*
X36279000Y27461400D02*
X33654000Y27461400D01*
X36279000Y27461400D02*
X36704000Y27061400D01*
X36704000Y25811400D02*
X33654000Y25811400D01*
X36704000Y25811400D02*
X36704000Y27061400D01*
%TO.C,IC8*%
X23973000Y47243400D02*
X24973000Y48243400D01*
X23973000Y38243400D02*
X23973000Y47243400D01*
X24973000Y48243400D02*
X33973000Y48243400D01*
X33973000Y48243400D02*
X33973000Y38243400D01*
X33973000Y38243400D02*
X23973000Y38243400D01*
D16*
%TO.C,J2*%
X59633666Y35050000D02*
G75*
G02*
X59133666Y35050000I-250000J0D01*
G01*
X59133666Y35050000D02*
G75*
G02*
X59633666Y35050000I250000J0D01*
G01*
D11*
X62333666Y29500000D02*
X62333666Y31100000D01*
X62333666Y34300000D02*
X62333666Y35900000D01*
X62333666Y35900000D02*
X49533666Y35900000D01*
X61233666Y31100000D02*
X62333666Y31100000D01*
X61233666Y31100000D02*
X61233666Y34300000D01*
X61233666Y34300000D02*
X62333666Y34300000D01*
X49533666Y29500000D02*
X62333666Y29500000D01*
X49533666Y35900000D02*
X49533666Y29500000D01*
%TO.C,D7*%
X58698900Y39400000D02*
X59498900Y39400000D01*
X58698900Y38800000D02*
X58698900Y39400000D01*
X58948900Y39300000D02*
X58948900Y38900000D01*
X58948900Y39100000D02*
X58848900Y39100000D01*
X58948900Y38900000D02*
X59248900Y39100000D01*
X59248900Y39300000D02*
X59248900Y38900000D01*
X59248900Y39100000D02*
X58948900Y39300000D01*
X59248900Y39100000D02*
X59348900Y39100000D01*
X59498900Y39400000D02*
X59498900Y38800000D01*
X59498900Y38800000D02*
X58698900Y38800000D01*
%TO.C,IC16*%
X27177000Y25811400D02*
X27177000Y27461400D01*
X29802000Y27461400D02*
X27177000Y27461400D01*
X29802000Y27461400D02*
X30227000Y27061400D01*
X30227000Y25811400D02*
X27177000Y25811400D01*
X30227000Y25811400D02*
X30227000Y27061400D01*
D10*
%TO.C,IC1*%
X20323900Y70847207D02*
X30523900Y70847207D01*
X20323900Y66547207D02*
X20323900Y70847207D01*
X21323900Y65547207D02*
X20323900Y66547207D01*
X30523900Y70847207D02*
X30523900Y65547207D01*
X30523900Y65547207D02*
X21323900Y65547207D01*
D11*
%TO.C,L1*%
X45998900Y68025000D02*
X47998900Y68025000D01*
X45998900Y66775000D02*
X45998900Y68025000D01*
X47998900Y68025000D02*
X47998900Y66775000D01*
X47998900Y66775000D02*
X45998900Y66775000D01*
%TO.C,SC1*%
X10498900Y81750000D02*
X13298900Y81750000D01*
X10498900Y81250000D02*
X10498900Y81750000D01*
X13298900Y81750000D02*
X13298900Y81250000D01*
X13298900Y81250000D02*
X10498900Y81250000D01*
%TO.C,C20*%
X17306900Y14857000D02*
X18306900Y14857000D01*
X17306900Y14357000D02*
X17306900Y14857000D01*
X18306900Y14857000D02*
X18306900Y14357000D01*
X18306900Y14357000D02*
X17306900Y14357000D01*
%TO.C,IC18*%
X16423900Y27482400D02*
X16423900Y24857400D01*
X16423900Y27482400D02*
X16823900Y27907400D01*
X18073900Y27907400D02*
X16823900Y27907400D01*
X18073900Y27907400D02*
X18073900Y24857400D01*
X18073900Y24857400D02*
X16423900Y24857400D01*
D14*
%TO.C,FL2*%
X46116400Y75700000D02*
X48116400Y75700000D01*
X46116400Y74500000D02*
X46116400Y75700000D01*
X48116400Y75700000D02*
X48116400Y74500000D01*
X48116400Y74500000D02*
X46116400Y74500000D01*
D15*
X49066400Y75520000D02*
G75*
G02*
X48866400Y75520000I-100000J0D01*
G01*
X48866400Y75520000D02*
G75*
G02*
X49066400Y75520000I100000J0D01*
G01*
D11*
%TO.C,R24*%
X38273900Y79070000D02*
X39323900Y79070000D01*
X38273900Y78530000D02*
X38273900Y79070000D01*
X39323900Y79070000D02*
X39323900Y78530000D01*
X39323900Y78530000D02*
X38273900Y78530000D01*
%TO.C,C9*%
X22030000Y62250000D02*
X23030000Y62250000D01*
X22030000Y61750000D02*
X22030000Y62250000D01*
X23030000Y62250000D02*
X23030000Y61750000D01*
X23030000Y61750000D02*
X22030000Y61750000D01*
%TO.C,C27*%
X28642400Y53584200D02*
X29142400Y53584200D01*
X28642400Y52584200D02*
X28642400Y53584200D01*
X29142400Y53584200D02*
X29142400Y52584200D01*
X29142400Y52584200D02*
X28642400Y52584200D01*
%TO.C,C21*%
X15998900Y29250000D02*
X16998900Y29250000D01*
X15998900Y28750000D02*
X15998900Y29250000D01*
X16998900Y29250000D02*
X16998900Y28750000D01*
X16998900Y28750000D02*
X15998900Y28750000D01*
%TO.C,J1*%
X51973900Y68187500D02*
X51973900Y77387500D01*
X62423900Y77387500D02*
X51973900Y77387500D01*
X62423900Y68187500D02*
X51973900Y68187500D01*
X62423900Y68187500D02*
X62423900Y77387500D01*
%TO.C,C8*%
X40828400Y66893600D02*
X42428400Y66893600D01*
X40828400Y66093600D02*
X40828400Y66893600D01*
X42428400Y66893600D02*
X42428400Y66093600D01*
X42428400Y66093600D02*
X40828400Y66093600D01*
%TO.C,C22*%
X37469000Y27771400D02*
X37969000Y27771400D01*
X37469000Y26771400D02*
X37469000Y27771400D01*
X37969000Y27771400D02*
X37969000Y26771400D01*
X37969000Y26771400D02*
X37469000Y26771400D01*
%TO.C,C11*%
X40935800Y54565400D02*
X42535800Y54565400D01*
X40935800Y53765400D02*
X40935800Y54565400D01*
X42535800Y54565400D02*
X42535800Y53765400D01*
X42535800Y53765400D02*
X40935800Y53765400D01*
%TO.C,IC11*%
X12002000Y50977400D02*
X12002000Y48352400D01*
X12002000Y50977400D02*
X12402000Y51402400D01*
X13652000Y51402400D02*
X12402000Y51402400D01*
X13652000Y51402400D02*
X13652000Y48352400D01*
X13652000Y48352400D02*
X12002000Y48352400D01*
%TO.C,SC1*%
X54581414Y3250000D02*
X57381414Y3250000D01*
X54581414Y2750000D02*
X54581414Y3250000D01*
X57381414Y3250000D02*
X57381414Y2750000D01*
X57381414Y2750000D02*
X54581414Y2750000D01*
%TO.C,C25*%
X31697400Y52554400D02*
X32697400Y52554400D01*
X31697400Y52054400D02*
X31697400Y52554400D01*
X32697400Y52554400D02*
X32697400Y52054400D01*
X32697400Y52054400D02*
X31697400Y52054400D01*
%TO.C,IC4*%
X12573900Y38067400D02*
X14223900Y38067400D01*
X12573900Y35017400D02*
X12573900Y38067400D01*
X12573900Y35017400D02*
X13823900Y35017400D01*
X14223900Y35442400D02*
X13823900Y35017400D01*
X14223900Y35442400D02*
X14223900Y38067400D01*
%TO.C,C26*%
X37790600Y45549200D02*
X38290600Y45549200D01*
X37790600Y44549200D02*
X37790600Y45549200D01*
X38290600Y45549200D02*
X38290600Y44549200D01*
X38290600Y44549200D02*
X37790600Y44549200D01*
%TO.C,C10*%
X40808800Y63684000D02*
X42408800Y63684000D01*
X40808800Y62884000D02*
X40808800Y63684000D01*
X42408800Y63684000D02*
X42408800Y62884000D01*
X42408800Y62884000D02*
X40808800Y62884000D01*
%TO.C,STATE0*%
X21808000Y57771400D02*
X21808000Y56171400D01*
X21808000Y56171400D02*
X22608000Y56171400D01*
X22308000Y57771400D02*
X21808000Y57771400D01*
X22608000Y57471400D02*
X22308000Y57771400D01*
X22608000Y56171400D02*
X22608000Y57471400D01*
%TO.C,IC17*%
X21081000Y26065400D02*
X21081000Y27715400D01*
X23706000Y27715400D02*
X21081000Y27715400D01*
X23706000Y27715400D02*
X24131000Y27315400D01*
X24131000Y26065400D02*
X21081000Y26065400D01*
X24131000Y26065400D02*
X24131000Y27315400D01*
%TO.C,SC1*%
X54848900Y41650000D02*
X57648900Y41650000D01*
X54848900Y41150000D02*
X54848900Y41650000D01*
X57648900Y41650000D02*
X57648900Y41150000D01*
X57648900Y41150000D02*
X54848900Y41150000D01*
%TO.C,C34*%
X11998900Y75515946D02*
X12998900Y75515946D01*
X11998900Y75015946D02*
X11998900Y75515946D01*
X12998900Y75515946D02*
X12998900Y75015946D01*
X12998900Y75015946D02*
X11998900Y75015946D01*
%TO.C,R12*%
X16724800Y36556400D02*
X17264800Y36556400D01*
X16724800Y35506400D02*
X16724800Y36556400D01*
X17264800Y36556400D02*
X17264800Y35506400D01*
X17264800Y35506400D02*
X16724800Y35506400D01*
%TO.C,C3*%
X42798900Y35555000D02*
X41798900Y35555000D01*
X42798900Y36055000D02*
X42798900Y35555000D01*
X41798900Y35555000D02*
X41798900Y36055000D01*
X41798900Y36055000D02*
X42798900Y36055000D01*
%TO.C,IC3*%
X40235000Y59410400D02*
X42735000Y59410400D01*
X40235000Y57810400D02*
X40235000Y59410400D01*
X42735000Y59410400D02*
X43135000Y59010400D01*
X43135000Y59010400D02*
X43135000Y57810400D01*
X43135000Y57810400D02*
X40235000Y57810400D01*
%TO.C,C38*%
X10620800Y36700000D02*
X11120800Y36700000D01*
X10620800Y35700000D02*
X10620800Y36700000D01*
X11120800Y36700000D02*
X11120800Y35700000D01*
X11120800Y35700000D02*
X10620800Y35700000D01*
%TO.C,SC1*%
X10498900Y32650000D02*
X13298900Y32650000D01*
X10498900Y32150000D02*
X10498900Y32650000D01*
X13298900Y32650000D02*
X13298900Y32150000D01*
X13298900Y32150000D02*
X10498900Y32150000D01*
%TO.C,R34*%
X34380150Y60392200D02*
X35430150Y60392200D01*
X34380150Y59852200D02*
X34380150Y60392200D01*
X35430150Y60392200D02*
X35430150Y59852200D01*
X35430150Y59852200D02*
X34380150Y59852200D01*
%TO.C,C4*%
X33048900Y71400000D02*
X33548900Y71400000D01*
X33048900Y70400000D02*
X33048900Y71400000D01*
X33548900Y71400000D02*
X33548900Y70400000D01*
X33548900Y70400000D02*
X33048900Y70400000D01*
%TO.C,R18*%
X27626300Y75703207D02*
X28166300Y75703207D01*
X27626300Y74653207D02*
X27626300Y75703207D01*
X28166300Y75703207D02*
X28166300Y74653207D01*
X28166300Y74653207D02*
X27626300Y74653207D01*
%TO.C,C7*%
X29522900Y75698207D02*
X30022900Y75698207D01*
X29522900Y74698207D02*
X29522900Y75698207D01*
X30022900Y75698207D02*
X30022900Y74698207D01*
X30022900Y74698207D02*
X29522900Y74698207D01*
%TO.C,R6*%
X16343800Y44938400D02*
X16883800Y44938400D01*
X16343800Y43888400D02*
X16343800Y44938400D01*
X16883800Y44938400D02*
X16883800Y43888400D01*
X16883800Y43888400D02*
X16343800Y43888400D01*
%TO.C,C6*%
X33048900Y69100000D02*
X33548900Y69100000D01*
X33048900Y68100000D02*
X33048900Y69100000D01*
X33548900Y69100000D02*
X33548900Y68100000D01*
X33548900Y68100000D02*
X33048900Y68100000D01*
%TO.C,R23*%
X12023900Y19970000D02*
X13073900Y19970000D01*
X12023900Y19430000D02*
X12023900Y19970000D01*
X13073900Y19970000D02*
X13073900Y19430000D01*
X13073900Y19430000D02*
X12023900Y19430000D01*
%TO.C,R1*%
X19940000Y57775000D02*
X20480000Y57775000D01*
X19940000Y56725000D02*
X19940000Y57775000D01*
X20480000Y57775000D02*
X20480000Y56725000D01*
X20480000Y56725000D02*
X19940000Y56725000D01*
%TO.C,J3*%
X49513900Y55700000D02*
X49513900Y49300000D01*
X49513900Y49300000D02*
X62313900Y49300000D01*
X61213900Y54100000D02*
X62313900Y54100000D01*
X61213900Y50900000D02*
X61213900Y54100000D01*
X61213900Y50900000D02*
X62313900Y50900000D01*
X62313900Y55700000D02*
X49513900Y55700000D01*
X62313900Y54100000D02*
X62313900Y55700000D01*
X62313900Y49300000D02*
X62313900Y50900000D01*
D16*
X59613900Y54850000D02*
G75*
G02*
X59113900Y54850000I-250000J0D01*
G01*
X59113900Y54850000D02*
G75*
G02*
X59613900Y54850000I250000J0D01*
G01*
D11*
%TO.C,C5*%
X25748900Y75698207D02*
X26248900Y75698207D01*
X25748900Y74698207D02*
X25748900Y75698207D01*
X26248900Y75698207D02*
X26248900Y74698207D01*
X26248900Y74698207D02*
X25748900Y74698207D01*
%TO.C,C12*%
X41227200Y51811200D02*
X42227200Y51811200D01*
X41227200Y51311200D02*
X41227200Y51811200D01*
X42227200Y51811200D02*
X42227200Y51311200D01*
X42227200Y51311200D02*
X41227200Y51311200D01*
%TO.C,C19*%
X17383900Y21044000D02*
X18383900Y21044000D01*
X17383900Y20544000D02*
X17383900Y21044000D01*
X18383900Y21044000D02*
X18383900Y20544000D01*
X18383900Y20544000D02*
X17383900Y20544000D01*
%TO.C,IC14*%
X16473900Y13040000D02*
X16473900Y10415000D01*
X16473900Y13040000D02*
X16873900Y13465000D01*
X18123900Y13465000D02*
X16873900Y13465000D01*
X18123900Y13465000D02*
X18123900Y10415000D01*
X18123900Y10415000D02*
X16473900Y10415000D01*
%TO.C,C37*%
X47103900Y35405000D02*
X46103900Y35405000D01*
X47103900Y35905000D02*
X47103900Y35405000D01*
X46103900Y35405000D02*
X46103900Y35905000D01*
X46103900Y35905000D02*
X47103900Y35905000D01*
%TO.C,R16*%
X11060856Y29770000D02*
X12110856Y29770000D01*
X11060856Y29230000D02*
X11060856Y29770000D01*
X12110856Y29770000D02*
X12110856Y29230000D01*
X12110856Y29230000D02*
X11060856Y29230000D01*
%TO.C,IC21*%
X10923900Y73765946D02*
X10923900Y71140946D01*
X10923900Y73765946D02*
X11323900Y74190946D01*
X12573900Y74190946D02*
X11323900Y74190946D01*
X12573900Y74190946D02*
X12573900Y71140946D01*
X12573900Y71140946D02*
X10923900Y71140946D01*
%TO.C,D8*%
X52998900Y26500000D02*
X53798900Y26500000D01*
X52998900Y25900000D02*
X52998900Y26500000D01*
X53248900Y26400000D02*
X53248900Y26000000D01*
X53248900Y26200000D02*
X53148900Y26200000D01*
X53248900Y26000000D02*
X53548900Y26200000D01*
X53548900Y26400000D02*
X53548900Y26000000D01*
X53548900Y26200000D02*
X53248900Y26400000D01*
X53548900Y26200000D02*
X53648900Y26200000D01*
X53798900Y26500000D02*
X53798900Y25900000D01*
X53798900Y25900000D02*
X52998900Y25900000D01*
%TO.C,C28*%
X30238800Y34114000D02*
X30738800Y34114000D01*
X30238800Y33114000D02*
X30238800Y34114000D01*
X30738800Y34114000D02*
X30738800Y33114000D01*
X30738800Y33114000D02*
X30238800Y33114000D01*
%TO.C,R26*%
X34728900Y73125000D02*
X35268900Y73125000D01*
X34728900Y72075000D02*
X34728900Y73125000D01*
X35268900Y73125000D02*
X35268900Y72075000D01*
X35268900Y72075000D02*
X34728900Y72075000D01*
%TO.C,SC1*%
X54848900Y81750000D02*
X57648900Y81750000D01*
X54848900Y81250000D02*
X54848900Y81750000D01*
X57648900Y81750000D02*
X57648900Y81250000D01*
X57648900Y81250000D02*
X54848900Y81250000D01*
X10498900Y3250000D02*
X13298900Y3250000D01*
X10498900Y2750000D02*
X10498900Y3250000D01*
X13298900Y3250000D02*
X13298900Y2750000D01*
X13298900Y2750000D02*
X10498900Y2750000D01*
%TO.C,R13*%
X16724800Y40429900D02*
X17264800Y40429900D01*
X16724800Y39379900D02*
X16724800Y40429900D01*
X17264800Y40429900D02*
X17264800Y39379900D01*
X17264800Y39379900D02*
X16724800Y39379900D01*
%TO.C,L2*%
X40411200Y48923000D02*
X42411200Y48923000D01*
X40411200Y47673000D02*
X40411200Y48923000D01*
X42411200Y48923000D02*
X42411200Y47673000D01*
X42411200Y47673000D02*
X40411200Y47673000D01*
%TO.C,C39*%
X8298900Y33900000D02*
X9098900Y33900000D01*
X8298900Y32300000D02*
X8298900Y33900000D01*
X9098900Y33900000D02*
X9098900Y32300000D01*
X9098900Y32300000D02*
X8298900Y32300000D01*
%TO.C,R11*%
X34019000Y30081400D02*
X35069000Y30081400D01*
X34019000Y29541400D02*
X34019000Y30081400D01*
X35069000Y30081400D02*
X35069000Y29541400D01*
X35069000Y29541400D02*
X34019000Y29541400D01*
%TO.C,C13*%
X37894800Y61168250D02*
X38394800Y61168250D01*
X37894800Y60168250D02*
X37894800Y61168250D01*
X38394800Y61168250D02*
X38394800Y60168250D01*
X38394800Y60168250D02*
X37894800Y60168250D01*
%TO.C,R10*%
X27415000Y29954400D02*
X28465000Y29954400D01*
X27415000Y29414400D02*
X27415000Y29954400D01*
X28465000Y29954400D02*
X28465000Y29414400D01*
X28465000Y29414400D02*
X27415000Y29414400D01*
%TO.C,R5*%
X49473900Y65020000D02*
X50523900Y65020000D01*
X49473900Y64480000D02*
X49473900Y65020000D01*
X50523900Y65020000D02*
X50523900Y64480000D01*
X50523900Y64480000D02*
X49473900Y64480000D01*
%TO.C,D3*%
X52598900Y46300000D02*
X53398900Y46300000D01*
X52598900Y45700000D02*
X52598900Y46300000D01*
X52848900Y46200000D02*
X52848900Y45800000D01*
X52848900Y46000000D02*
X52748900Y46000000D01*
X52848900Y45800000D02*
X53148900Y46000000D01*
X53148900Y46200000D02*
X53148900Y45800000D01*
X53148900Y46000000D02*
X52848900Y46200000D01*
X53148900Y46000000D02*
X53248900Y46000000D01*
X53398900Y46300000D02*
X53398900Y45700000D01*
X53398900Y45700000D02*
X52598900Y45700000D01*
%TO.C,R25*%
X50473900Y58820000D02*
X51523900Y58820000D01*
X50473900Y58280000D02*
X50473900Y58820000D01*
X51523900Y58820000D02*
X51523900Y58280000D01*
X51523900Y58280000D02*
X50473900Y58280000D01*
%TO.C,D2*%
X56298900Y59050000D02*
X57098900Y59050000D01*
X56298900Y58450000D02*
X56298900Y59050000D01*
X56548900Y58950000D02*
X56548900Y58550000D01*
X56548900Y58750000D02*
X56448900Y58750000D01*
X56548900Y58550000D02*
X56848900Y58750000D01*
X56848900Y58950000D02*
X56848900Y58550000D01*
X56848900Y58750000D02*
X56548900Y58950000D01*
X56848900Y58750000D02*
X56948900Y58750000D01*
X57098900Y59050000D02*
X57098900Y58450000D01*
X57098900Y58450000D02*
X56298900Y58450000D01*
%TO.C,Q1*%
X47548900Y42020000D02*
X47548900Y43780000D01*
X49998900Y43780000D02*
X47548900Y43780000D01*
X49998900Y43780000D02*
X50448900Y43330000D01*
X50448900Y42020000D02*
X47548900Y42020000D01*
X50448900Y42020000D02*
X50448900Y43330000D01*
%TO.C,D1*%
X57998900Y46700000D02*
X58798900Y46700000D01*
X57998900Y46100000D02*
X57998900Y46700000D01*
X58248900Y46400000D02*
X58148900Y46400000D01*
X58248900Y46400000D02*
X58548900Y46200000D01*
X58248900Y46200000D02*
X58248900Y46600000D01*
X58548900Y46600000D02*
X58248900Y46400000D01*
X58548900Y46400000D02*
X58648900Y46400000D01*
X58548900Y46200000D02*
X58548900Y46600000D01*
X58798900Y46700000D02*
X58798900Y46100000D01*
X58798900Y46100000D02*
X57998900Y46100000D01*
%TO.C,C36*%
X52998900Y61000000D02*
X53498900Y61000000D01*
X52998900Y60000000D02*
X52998900Y61000000D01*
X53498900Y61000000D02*
X53498900Y60000000D01*
X53498900Y60000000D02*
X52998900Y60000000D01*
%TO.C,R2*%
X52978900Y63675000D02*
X53518900Y63675000D01*
X52978900Y62625000D02*
X52978900Y63675000D01*
X53518900Y63675000D02*
X53518900Y62625000D01*
X53518900Y62625000D02*
X52978900Y62625000D01*
%TO.C,C24*%
X55948900Y61400000D02*
X57548900Y61400000D01*
X55948900Y60600000D02*
X55948900Y61400000D01*
X57548900Y61400000D02*
X57548900Y60600000D01*
X57548900Y60600000D02*
X55948900Y60600000D01*
%TO.C,U1*%
X49333900Y62650000D02*
X49333900Y60025000D01*
X49333900Y62650000D02*
X49733900Y63075000D01*
X50983900Y63075000D02*
X49733900Y63075000D01*
X50983900Y63075000D02*
X50983900Y60025000D01*
X50983900Y60025000D02*
X49333900Y60025000D01*
%TO.C,SV2*%
X33938900Y59100000D02*
X39018900Y59100000D01*
X33938900Y51480000D02*
X33938900Y59100000D01*
X37748900Y51480000D02*
X33938900Y51480000D01*
X39018900Y59100000D02*
X39018900Y52750000D01*
X39018900Y52750000D02*
X37748900Y51480000D01*
D17*
%TO.C,X1*%
X51448900Y24550000D02*
X51448900Y5850000D01*
D11*
%TO.C,IC20*%
X43013900Y16350000D02*
X43013900Y13725000D01*
X43013900Y16350000D02*
X43413900Y16775000D01*
X44663900Y16775000D02*
X43413900Y16775000D01*
X44663900Y16775000D02*
X44663900Y13725000D01*
X44663900Y13725000D02*
X43013900Y13725000D01*
%TO.C,C35*%
X43998900Y18250000D02*
X44998900Y18250000D01*
X43998900Y17750000D02*
X43998900Y18250000D01*
X44998900Y18250000D02*
X44998900Y17750000D01*
X44998900Y17750000D02*
X43998900Y17750000D01*
%TO.C,IC19*%
X43013900Y12775000D02*
X44663900Y12775000D01*
X43013900Y9725000D02*
X43013900Y12775000D01*
X43013900Y9725000D02*
X44263900Y9725000D01*
X44663900Y10150000D02*
X44263900Y9725000D01*
X44663900Y10150000D02*
X44663900Y12775000D01*
%TO.C,C33*%
X43998900Y23500000D02*
X44998900Y23500000D01*
X43998900Y23000000D02*
X43998900Y23500000D01*
X44998900Y23500000D02*
X44998900Y23000000D01*
X44998900Y23000000D02*
X43998900Y23000000D01*
%TO.C,IC22*%
X43013900Y21800000D02*
X43013900Y19175000D01*
X43013900Y21800000D02*
X43413900Y22225000D01*
X44663900Y22225000D02*
X43413900Y22225000D01*
X44663900Y22225000D02*
X44663900Y19175000D01*
X44663900Y19175000D02*
X43013900Y19175000D01*
%TO.C,R15*%
X47223900Y19270000D02*
X48273900Y19270000D01*
X47223900Y18730000D02*
X47223900Y19270000D01*
X48273900Y19270000D02*
X48273900Y18730000D01*
X48273900Y18730000D02*
X47223900Y18730000D01*
%TO.C,C32*%
X43998900Y8750000D02*
X44998900Y8750000D01*
X43998900Y8250000D02*
X43998900Y8750000D01*
X44998900Y8750000D02*
X44998900Y8250000D01*
X44998900Y8250000D02*
X43998900Y8250000D01*
%TD*%
D18*
X60423900Y0D02*
G75*
G02*
X61923900Y1500000I1500000J0D01*
G01*
X1500000Y0D02*
X60423900Y0D01*
X0Y1500000D02*
G75*
G02*
X1500000Y0I0J-1500000D01*
G01*
X1500000Y84400000D02*
G75*
G02*
X0Y82900000I-1500000J0D01*
G01*
D19*
X61923900Y1500000D02*
X61923900Y82900000D01*
D18*
X60423900Y84400000D02*
X1500000Y84400000D01*
X0Y82900000D02*
X0Y1500000D01*
X61923900Y82900000D02*
G75*
G02*
X60423900Y84400000I0J1500000D01*
G01*
M02*
